<svg version="1.1" id="Layer_1" xmlns="http://www.w3.org/2000/svg" xmlns:xlink="http://www.w3.org/1999/xlink" x="0px" y="0px"
	 width="100%" viewBox="0 0 336 336" enable-background="new 0 0 336 336" xml:space="preserve">
<path fill="#000000" opacity="1.000000" stroke="none" 
	d="
M152.000000,337.000000 
	C101.333344,337.000000 51.166683,337.000000 1.000020,337.000000 
	C1.000013,225.000031 1.000013,113.000061 1.000007,1.000065 
	C112.999947,1.000044 224.999893,1.000044 336.999878,1.000022 
	C336.999939,112.999931 336.999939,224.999863 336.999969,336.999878 
	C275.500000,337.000000 214.000000,337.000000 152.000000,337.000000 
M93.196281,166.261337 
	C100.770424,174.654449 109.507950,180.155777 121.377304,181.074783 
	C144.430206,182.859695 164.816849,162.887146 162.995041,138.852432 
	C161.425385,118.144455 141.941452,98.219574 115.832298,103.695320 
	C86.953171,109.752014 75.672241,143.447800 93.196281,166.261337 
M213.624863,163.442642 
	C222.153275,163.231750 231.186264,157.583130 233.468781,150.947678 
	C237.582123,138.989868 233.959045,124.391647 217.375061,121.223755 
	C207.997711,119.432487 195.747040,126.108696 193.148285,134.999390 
	C189.314651,148.114777 198.639481,161.612564 213.624863,163.442642 
M156.886856,213.755325 
	C153.925049,213.940735 150.963226,214.126129 147.855179,214.320694 
	C147.855179,220.513016 147.855179,226.567719 147.855179,232.605728 
	C179.550980,233.856476 210.824387,208.428116 216.870972,188.608521 
	C212.298660,187.360626 207.653397,186.333801 203.190536,184.782257 
	C200.610748,183.885361 199.528000,184.444382 198.027328,186.681854 
	C188.309372,201.171295 175.006470,210.375549 156.886856,213.755325 
z"/>
<path fill="#F5F7FD" opacity="1.000000" stroke="none" 
	d="
M92.949310,166.000244 
	C75.672241,143.447800 86.953171,109.752014 115.832298,103.695320 
	C141.941452,98.219574 161.425385,118.144455 162.995041,138.852432 
	C164.816849,162.887146 144.430206,182.859695 121.377304,181.074783 
	C109.507950,180.155777 100.770424,174.654449 92.949310,166.000244 
M121.725945,121.729195 
	C119.649338,122.159027 117.372192,122.179886 115.528221,123.084129 
	C102.119904,129.659180 97.660942,148.377686 112.702919,159.308014 
	C119.427475,164.194412 130.724854,163.348480 137.073151,157.873138 
	C145.445633,150.651962 146.667221,139.959183 142.131287,132.396027 
	C137.722137,125.044228 131.650635,120.708099 121.725945,121.729195 
z"/>
<path fill="#F8F9FD" opacity="1.000000" stroke="none" 
	d="
M213.210052,163.440598 
	C198.639481,161.612564 189.314651,148.114777 193.148285,134.999390 
	C195.747040,126.108696 207.997711,119.432487 217.375061,121.223755 
	C233.959045,124.391647 237.582123,138.989868 233.468781,150.947678 
	C231.186264,157.583130 222.153275,163.231750 213.210052,163.440598 
z"/>
<path fill="#F5F7FD" opacity="1.000000" stroke="none" 
	d="
M157.244431,213.504639 
	C175.006470,210.375549 188.309372,201.171295 198.027328,186.681854 
	C199.528000,184.444382 200.610748,183.885361 203.190536,184.782257 
	C207.653397,186.333801 212.298660,187.360626 216.870972,188.608521 
	C210.824387,208.428116 179.550980,233.856476 147.855179,232.605728 
	C147.855179,226.567719 147.855179,220.513016 147.855179,214.320694 
	C150.963226,214.126129 153.925049,213.940735 157.244431,213.504639 
z"/>
<path fill="#000000" opacity="1.000000" stroke="none" 
	d="
M122.181000,121.777527 
	C131.650635,120.708099 137.722137,125.044228 142.131287,132.396027 
	C146.667221,139.959183 145.445633,150.651962 137.073151,157.873138 
	C130.724854,163.348480 119.427475,164.194412 112.702919,159.308014 
	C97.660942,148.377686 102.119904,129.659180 115.528221,123.084129 
	C117.372192,122.179886 119.649338,122.159027 122.181000,121.777527 
z"/>
</svg>