<svg version="1.1" id="Layer_1" xmlns="http://www.w3.org/2000/svg" xmlns:xlink="http://www.w3.org/1999/xlink" x="0px" y="0px"
	 width="100%" viewBox="0 0 336 336" enable-background="new 0 0 336 336" xml:space="preserve">
<path fill="#3059D4" opacity="1.000000" stroke="none" 
	d="
M152.000000,337.000000 
	C101.333344,337.000000 51.166683,337.000000 1.000020,337.000000 
	C1.000013,225.000031 1.000013,113.000061 1.000007,1.000065 
	C112.999947,1.000044 224.999893,1.000044 336.999878,1.000022 
	C336.999939,112.999931 336.999939,224.999863 336.999969,336.999878 
	C275.500000,337.000000 214.000000,337.000000 152.000000,337.000000 
M93.980904,117.485725 
	C80.263412,134.303772 82.603081,158.166016 99.314697,171.884918 
	C116.440109,185.943497 140.148102,183.292328 154.846756,165.675034 
	C167.992661,149.918793 164.827667,125.333229 147.840790,111.252892 
	C132.319046,98.386986 107.835983,100.991982 93.980904,117.485725 
M216.172760,162.929596 
	C225.867188,161.315903 232.070618,155.787811 234.469101,146.253860 
	C236.407928,138.547150 232.923737,129.540771 225.935318,124.815331 
	C218.682510,119.911118 210.934479,119.673912 203.324478,124.015686 
	C195.283951,128.603104 191.404617,138.386856 193.794647,147.201721 
	C196.453827,157.009277 204.468170,162.884003 216.172760,162.929596 
M170.393631,210.076569 
	C163.046021,211.875854 155.698410,213.675140 148.243820,215.500626 
	C148.243820,220.751282 148.243820,226.350037 148.243820,231.927643 
	C175.580719,233.511520 207.048187,212.813141 216.859344,188.926392 
	C212.378143,187.653473 207.904816,186.470901 203.492065,185.094116 
	C201.091522,184.345123 199.652283,184.835846 198.223221,187.081223 
	C191.601929,197.484787 182.403381,204.927856 170.393631,210.076569 
z"/>
<path fill="#FDFDFE" opacity="1.000000" stroke="none" 
	d="
M94.207321,117.210541 
	C107.835983,100.991982 132.319046,98.386986 147.840790,111.252892 
	C164.827667,125.333229 167.992661,149.918793 154.846756,165.675034 
	C140.148102,183.292328 116.440109,185.943497 99.314697,171.884918 
	C82.603081,158.166016 80.263412,134.303772 94.207321,117.210541 
M138.505569,157.023026 
	C144.863892,150.363983 146.846893,142.669434 143.255798,134.082870 
	C139.871994,125.991959 133.549652,121.403931 124.724533,121.127022 
	C115.942032,120.851448 109.399979,124.904480 105.311424,132.739258 
	C100.931969,141.131470 103.009468,151.494095 110.277122,157.689835 
	C118.796677,164.952850 128.281952,164.887268 138.505569,157.023026 
z"/>
<path fill="#FCFDFE" opacity="1.000000" stroke="none" 
	d="
M215.737030,162.948135 
	C204.468170,162.884003 196.453827,157.009277 193.794647,147.201721 
	C191.404617,138.386856 195.283951,128.603104 203.324478,124.015686 
	C210.934479,119.673912 218.682510,119.911118 225.935318,124.815331 
	C232.923737,129.540771 236.407928,138.547150 234.469101,146.253860 
	C232.070618,155.787811 225.867188,161.315903 215.737030,162.948135 
z"/>
<path fill="#FCFDFE" opacity="1.000000" stroke="none" 
	d="
M170.767456,209.972427 
	C182.403381,204.927856 191.601929,197.484787 198.223221,187.081223 
	C199.652283,184.835846 201.091522,184.345123 203.492065,185.094116 
	C207.904816,186.470901 212.378143,187.653473 216.859344,188.926392 
	C207.048187,212.813141 175.580719,233.511520 148.243820,231.927643 
	C148.243820,226.350037 148.243820,220.751282 148.243820,215.500626 
	C155.698410,213.675140 163.046021,211.875854 170.767456,209.972427 
z"/>
<path fill="#335BD5" opacity="1.000000" stroke="none" 
	d="
M138.231918,157.260757 
	C128.281952,164.887268 118.796677,164.952850 110.277122,157.689835 
	C103.009468,151.494095 100.931969,141.131470 105.311424,132.739258 
	C109.399979,124.904480 115.942032,120.851448 124.724533,121.127022 
	C133.549652,121.403931 139.871994,125.991959 143.255798,134.082870 
	C146.846893,142.669434 144.863892,150.363983 138.231918,157.260757 
z"/>
</svg>